<svg width="72" height="72" viewBox="0 0 72 72" fill="none" xmlns="http://www.w3.org/2000/svg">
<rect x="2" y="2" width="68" height="68" rx="24" fill="#44D880"/>
<path d="M31.9999 59C29.2692 59 27.1359 58.2534 25.5999 56.76C24.0639 55.224 23.2959 53.1547 23.2959 50.552C23.2959 49.6987 23.5306 49.272 23.9999 49.272C24.4266 49.272 24.6399 49.5067 24.6399 49.976C24.6399 52.536 25.2799 54.456 26.5599 55.736C27.8399 57.016 29.6532 57.656 31.9999 57.656C34.7732 57.656 37.0346 56.76 38.7839 54.968C40.5332 53.176 41.4079 50.68 41.4079 47.48C41.4079 45.3894 41.0239 43.5974 40.2559 42.104C39.4879 40.6107 38.5492 39.2027 37.4399 37.88L36.4159 36.664C35.2212 35.1707 34.1546 33.592 33.2159 31.928C32.3199 30.2214 31.8719 28.152 31.8719 25.72C31.8719 23.5014 32.2986 21.56 33.1519 19.896C34.0479 18.232 35.2639 16.9307 36.7999 15.992C38.3359 15.0107 40.0852 14.52 42.0479 14.52C44.0959 14.52 45.8026 15.0534 47.1679 16.12C48.5759 17.144 49.3226 18.6587 49.4079 20.664C49.4079 21.176 49.1732 21.432 48.7039 21.432C48.3199 21.432 48.1066 21.2187 48.0639 20.792C47.9786 19.256 47.4026 18.0614 46.3359 17.208C45.2692 16.312 43.8399 15.864 42.0479 15.864C39.4879 15.864 37.3759 16.76 35.7119 18.552C34.0906 20.344 33.2799 22.712 33.2799 25.656C33.2799 27.8747 33.7066 29.7947 34.5599 31.416C35.4559 33.0374 36.4799 34.552 37.6319 35.96L38.5919 37.112C39.7866 38.52 40.7892 40.0347 41.5999 41.656C42.4106 43.2774 42.8159 45.2187 42.8159 47.48C42.8159 49.8267 42.3252 51.8747 41.3439 53.624C40.4052 55.3307 39.1252 56.6534 37.5039 57.592C35.8826 58.5307 34.0479 59 31.9999 59Z" fill="#223843"/>
</svg>
