<svg width="300" height="300" viewBox="0 0 300 300" fill="none" xmlns="http://www.w3.org/2000/svg">
<path d="M76.9999 234C66.7599 234 58.7599 231.2 52.9999 225.6C47.2399 219.84 44.3599 212.08 44.3599 202.32C44.3599 199.12 45.2399 197.52 46.9999 197.52C48.5999 197.52 49.3999 198.4 49.3999 200.16C49.3999 209.76 51.7999 216.96 56.5999 221.76C61.3999 226.56 68.1999 228.96 76.9999 228.96C87.3999 228.96 95.8799 225.6 102.44 218.88C109 212.16 112.28 202.8 112.28 190.8C112.28 182.96 110.84 176.24 107.96 170.64C105.08 165.04 101.56 159.76 97.3999 154.8L93.5599 150.24C89.0799 144.64 85.0799 138.72 81.5599 132.48C78.1999 126.08 76.5199 118.32 76.5199 109.2C76.5199 100.88 78.1199 93.6 81.3199 87.36C84.6799 81.12 89.2399 76.24 94.9999 72.72C100.76 69.04 107.32 67.2 114.68 67.2C122.36 67.2 128.76 69.2 133.88 73.2C139.16 77.04 141.96 82.72 142.28 90.24C142.28 92.16 141.4 93.12 139.64 93.12C138.2 93.12 137.4 92.32 137.24 90.72C136.92 84.96 134.76 80.48 130.76 77.28C126.76 73.92 121.4 72.24 114.68 72.24C105.08 72.24 97.1599 75.6 90.9199 82.32C84.8399 89.04 81.7999 97.92 81.7999 108.96C81.7999 117.28 83.3999 124.48 86.5999 130.56C89.9599 136.64 93.7999 142.32 98.1199 147.6L101.72 151.92C106.2 157.2 109.96 162.88 113 168.96C116.04 175.04 117.56 182.32 117.56 190.8C117.56 199.6 115.72 207.28 112.04 213.84C108.52 220.24 103.72 225.2 97.6399 228.72C91.5599 232.24 84.6799 234 76.9999 234Z" fill="#223843"/>
<path fill-rule="evenodd" clip-rule="evenodd" d="M51.5956 227.024L51.5856 227.014C45.3779 220.806 42.3599 212.498 42.3599 202.32C42.3599 200.602 42.5848 198.997 43.2674 197.756C43.6253 197.105 44.1276 196.522 44.8083 196.11C45.4928 195.695 46.2467 195.52 46.9999 195.52C48.1599 195.52 49.3826 195.848 50.2797 196.835C51.144 197.785 51.3999 199.016 51.3999 200.16C51.3999 209.452 53.7214 216.053 58.0141 220.346C62.3371 224.669 68.5663 226.96 76.9999 226.96C86.9248 226.96 94.8674 223.774 101.009 217.483C107.11 211.232 110.28 202.429 110.28 190.8C110.28 183.202 108.884 176.811 106.181 171.555C103.371 166.091 99.9351 160.935 95.8684 156.086L95.8675 156.085L92.0138 151.509L91.9981 151.489C87.451 145.806 83.3908 139.796 79.8179 133.463L79.8031 133.436L79.7891 133.41C76.2442 126.658 74.5199 118.561 74.5199 109.2C74.5199 100.621 76.1707 93.0179 79.5402 86.4474L79.5494 86.4295L79.5589 86.4118C83.0749 79.8822 87.8704 74.7371 93.9399 71.0238C100.042 67.1297 106.976 65.2 114.68 65.2C122.709 65.2 129.556 67.2946 135.084 71.6029C140.918 75.8589 143.937 82.1433 144.278 90.155L144.28 90.1975V90.24C144.28 91.4672 144.002 92.7608 143.094 93.7514C142.156 94.7751 140.875 95.12 139.64 95.12C138.541 95.12 137.416 94.8046 136.546 93.9342C135.706 93.0944 135.357 91.9886 135.25 90.919L135.245 90.875L135.243 90.8309C134.95 85.5592 133.008 81.6395 129.51 78.8417L129.492 78.8268L129.473 78.8114C125.927 75.8321 121.067 74.24 114.68 74.24C105.611 74.24 98.2349 77.3863 92.3942 83.6715C86.7217 89.9464 83.7999 98.3078 83.7999 108.96C83.7999 117.015 85.3464 123.876 88.3603 129.611C91.6591 135.577 95.4264 141.149 99.662 146.326C99.664 146.329 99.6659 146.331 99.6678 146.334L103.245 150.626C103.247 150.628 103.249 150.631 103.251 150.633C107.83 156.031 111.677 161.842 114.789 168.066C117.998 174.483 119.56 182.085 119.56 190.8C119.56 199.881 117.66 207.906 113.788 214.811C110.1 221.513 105.048 226.742 98.6419 230.451C92.2295 234.163 84.998 236 76.9999 236C66.3886 236 57.834 233.089 51.6057 227.034L51.5956 227.024ZM112.04 213.84C115.72 207.28 117.56 199.6 117.56 190.8C117.56 182.32 116.04 175.04 113 168.96C109.96 162.88 106.2 157.2 101.72 151.92L98.1199 147.6C93.7999 142.32 89.9599 136.64 86.5999 130.56C83.3999 124.48 81.7999 117.28 81.7999 108.96C81.7999 97.92 84.8399 89.04 90.9199 82.32C97.1599 75.6 105.08 72.24 114.68 72.24C121.4 72.24 126.76 73.92 130.76 77.28C134.76 80.48 136.92 84.96 137.24 90.72C137.4 92.32 138.2 93.12 139.64 93.12C141.4 93.12 142.28 92.16 142.28 90.24C141.96 82.72 139.16 77.04 133.88 73.2C128.76 69.2 122.36 67.2 114.68 67.2C107.32 67.2 100.76 69.04 94.9999 72.72C89.2399 76.24 84.6799 81.12 81.3199 87.36C78.1199 93.6 76.5199 100.88 76.5199 109.2C76.5199 118.32 78.1999 126.08 81.5599 132.48C85.0799 138.72 89.0799 144.64 93.5599 150.24L97.3999 154.8C101.56 159.76 105.08 165.04 107.96 170.64C110.84 176.24 112.28 182.96 112.28 190.8C112.28 202.8 109 212.16 102.44 218.88C95.8799 225.6 87.3999 228.96 76.9999 228.96C68.1999 228.96 61.3999 226.56 56.5999 221.76C51.7999 216.96 49.3999 209.76 49.3999 200.16C49.3999 198.4 48.5999 197.52 46.9999 197.52C45.2399 197.52 44.3599 199.12 44.3599 202.32C44.3599 212.08 47.2399 219.84 52.9999 225.6C58.7599 231.2 66.7599 234 76.9999 234C84.6799 234 91.5599 232.24 97.6399 228.72C103.72 225.2 108.52 220.24 112.04 213.84Z" fill="#223843"/>
<path d="M180 234C169.76 234 161.76 231.2 156 225.6C150.24 219.84 147.36 212.08 147.36 202.32C147.36 199.12 148.24 197.52 150 197.52C151.6 197.52 152.4 198.4 152.4 200.16C152.4 209.76 154.8 216.96 159.6 221.76C164.4 226.56 171.2 228.96 180 228.96C190.4 228.96 198.88 225.6 205.44 218.88C212 212.16 215.28 202.8 215.28 190.8C215.28 182.96 213.84 176.24 210.96 170.64C208.08 165.04 204.56 159.76 200.4 154.8L196.56 150.24C192.08 144.64 188.08 138.72 184.56 132.48C181.2 126.08 179.52 118.32 179.52 109.2C179.52 100.88 181.12 93.6 184.32 87.36C187.68 81.12 192.24 76.24 198 72.72C203.76 69.04 210.32 67.2 217.68 67.2C225.36 67.2 231.76 69.2 236.88 73.2C242.16 77.04 244.96 82.72 245.28 90.24C245.28 92.16 244.4 93.12 242.64 93.12C241.2 93.12 240.4 92.32 240.24 90.72C239.92 84.96 237.76 80.48 233.76 77.28C229.76 73.92 224.4 72.24 217.68 72.24C208.08 72.24 200.16 75.6 193.92 82.32C187.84 89.04 184.8 97.92 184.8 108.96C184.8 117.28 186.4 124.48 189.6 130.56C192.96 136.64 196.8 142.32 201.12 147.6L204.72 151.92C209.2 157.2 212.96 162.88 216 168.96C219.04 175.04 220.56 182.32 220.56 190.8C220.56 199.6 218.72 207.28 215.04 213.84C211.52 220.24 206.72 225.2 200.64 228.72C194.56 232.24 187.68 234 180 234Z" fill="#223843"/>
<path fill-rule="evenodd" clip-rule="evenodd" d="M154.596 227.024L154.586 227.014C148.378 220.806 145.36 212.498 145.36 202.32C145.36 200.602 145.585 198.997 146.267 197.756C146.625 197.105 147.128 196.522 147.808 196.11C148.493 195.695 149.247 195.52 150 195.52C151.16 195.52 152.383 195.848 153.28 196.835C154.144 197.785 154.4 199.016 154.4 200.16C154.4 209.452 156.721 216.053 161.014 220.346C165.337 224.669 171.566 226.96 180 226.96C189.925 226.96 197.867 223.774 204.009 217.483C210.11 211.232 213.28 202.429 213.28 190.8C213.28 183.202 211.884 176.811 209.181 171.555C206.371 166.091 202.935 160.935 198.868 156.086L198.867 156.085L195.014 151.509L194.998 151.489C190.451 145.806 186.391 139.796 182.818 133.463L182.803 133.436L182.789 133.41C179.244 126.658 177.52 118.561 177.52 109.2C177.52 100.621 179.171 93.0179 182.54 86.4474L182.549 86.4295L182.559 86.4118C186.075 79.8822 190.87 74.7371 196.94 71.0238C203.042 67.1297 209.976 65.2 217.68 65.2C225.709 65.2 232.556 67.2946 238.084 71.6029C243.918 75.8589 246.937 82.1433 247.278 90.155L247.28 90.1975V90.24C247.28 91.4672 247.002 92.7608 246.094 93.7514C245.156 94.7751 243.875 95.12 242.64 95.12C241.541 95.12 240.416 94.8046 239.546 93.9342C238.706 93.0944 238.357 91.9886 238.25 90.919L238.245 90.875L238.243 90.8309C237.95 85.5592 236.008 81.6395 232.51 78.8417L232.492 78.8268L232.473 78.8114C228.927 75.8321 224.067 74.24 217.68 74.24C208.611 74.24 201.235 77.3863 195.394 83.6715C189.722 89.9464 186.8 98.3078 186.8 108.96C186.8 117.015 188.346 123.876 191.36 129.611C194.659 135.577 198.426 141.149 202.662 146.326C202.664 146.329 202.666 146.331 202.668 146.334L206.245 150.626C206.247 150.628 206.249 150.631 206.251 150.633C210.83 156.031 214.677 161.842 217.789 168.066C220.998 174.483 222.56 182.085 222.56 190.8C222.56 199.881 220.66 207.906 216.788 214.811C213.1 221.513 208.048 226.742 201.642 230.451C195.229 234.163 187.998 236 180 236C169.389 236 160.834 233.089 154.606 227.034L154.596 227.024ZM215.04 213.84C218.72 207.28 220.56 199.6 220.56 190.8C220.56 182.32 219.04 175.04 216 168.96C212.96 162.88 209.2 157.2 204.72 151.92L201.12 147.6C196.8 142.32 192.96 136.64 189.6 130.56C186.4 124.48 184.8 117.28 184.8 108.96C184.8 97.92 187.84 89.04 193.92 82.32C200.16 75.6 208.08 72.24 217.68 72.24C224.4 72.24 229.76 73.92 233.76 77.28C237.76 80.48 239.92 84.96 240.24 90.72C240.4 92.32 241.2 93.12 242.64 93.12C244.4 93.12 245.28 92.16 245.28 90.24C244.96 82.72 242.16 77.04 236.88 73.2C231.76 69.2 225.36 67.2 217.68 67.2C210.32 67.2 203.76 69.04 198 72.72C192.24 76.24 187.68 81.12 184.32 87.36C181.12 93.6 179.52 100.88 179.52 109.2C179.52 118.32 181.2 126.08 184.56 132.48C188.08 138.72 192.08 144.64 196.56 150.24L200.4 154.8C204.56 159.76 208.08 165.04 210.96 170.64C213.84 176.24 215.28 182.96 215.28 190.8C215.28 202.8 212 212.16 205.44 218.88C198.88 225.6 190.4 228.96 180 228.96C171.2 228.96 164.4 226.56 159.6 221.76C154.8 216.96 152.4 209.76 152.4 200.16C152.4 198.4 151.6 197.52 150 197.52C148.24 197.52 147.36 199.12 147.36 202.32C147.36 212.08 150.24 219.84 156 225.6C161.76 231.2 169.76 234 180 234C187.68 234 194.56 232.24 200.64 228.72C206.72 225.2 211.52 220.24 215.04 213.84Z" fill="#223843"/>
</svg>
